<svg width="30" height="30" viewBox="0 0 30 30" fill="none" xmlns="http://www.w3.org/2000/svg">
<g opacity="0.348">
<g opacity="0.348">
<path opacity="0.348" d="M15 29.7999C6.90005 29.7999 0.300049 23.1999 0.300049 15.0999C0.300049 6.99985 6.90005 0.399902 15 0.399902C23.1 0.399902 29.7 6.99985 29.7 15.0999C29.7 23.1999 23.1 29.7999 15 29.7999ZM15 2.49988C8.00005 2.49988 2.40004 8.19985 2.40004 15.0999C2.40004 22.0999 8.10005 27.6999 15 27.6999C21.9 27.6999 27.6001 21.9999 27.6001 15.0999C27.7001 8.19985 22 2.49988 15 2.49988Z" fill="#2D2D2D"/>
</g>
</g>
<path d="M15.8 11.0999H14.2V19.2999H15.8V11.0999Z" fill="#91E29B"/>
<path d="M19.1002 14.2998H10.9001V15.8998H19.1002V14.2998Z" fill="#91E29B"/>
</svg>

