<svg width="30" height="30" viewBox="0 0 30 30" fill="none" xmlns="http://www.w3.org/2000/svg">
<path opacity="0.348" d="M15 29.8C6.90005 29.8 0.300049 23.2 0.300049 15.1C0.300049 7.00004 6.90005 0.400024 15 0.400024C23.1 0.400024 29.7 7.00004 29.7 15.1C29.7 23.2 23.1 29.8 15 29.8ZM15 2.50003C8.00005 2.50003 2.40004 8.20004 2.40004 15.1C2.40004 22 8.10005 27.7 15 27.7C21.9 27.7 27.6001 22 27.6001 15.1C27.6001 8.20004 22 2.50003 15 2.50003Z" fill="#2D2D2D"/>
<path d="M15.8 11.1001H14.2V19.3001H15.8V11.1001Z" fill="#91E29B"/>
<path d="M19.1002 14.3H10.9001V15.9001H19.1002V14.3Z" fill="#91E29B"/>
</svg>
