<svg width="19" height="15" viewBox="0 0 19 15" fill="none" xmlns="http://www.w3.org/2000/svg">
                <path d="M6.20018 0.700073C7.90018 0.700073 9.50018 0.700073 11.2002 0.700073C11.5002 0.700073 11.8002 0.700071 12.0002 1.10007C12.1002 1.30007 12.1002 1.40007 12.1002 1.60007C12.1002 2.10007 12.1002 2.00007 12.5002 2.00007C13.2002 2.00007 13.9002 2.00007 14.6002 2.00007C15.0002 2.00007 15.2002 2.20007 15.4002 2.50007C15.9002 3.60007 16.5002 4.60007 17.0002 5.70007C17.3002 6.30007 17.7002 6.70007 18.1002 7.20007C18.4002 7.50007 18.5002 7.90007 18.5002 8.30007C18.5002 9.50007 18.5002 10.7001 18.5002 11.9001C18.5002 12.4001 18.2002 12.6001 17.8002 12.6001C17.3002 12.6001 16.8002 12.6001 16.3002 12.6001C16.1002 12.6001 16.1002 12.6001 16.0002 12.8001C15.6002 13.8001 14.7002 14.4001 13.6002 14.4001C12.6002 14.4001 11.6002 13.7001 11.3002 12.8001C11.2002 12.6001 11.1002 12.6001 11.0002 12.6001C10.0002 12.6001 8.90018 12.6001 7.90018 12.6001C7.70018 12.6001 7.60019 12.7001 7.60019 12.8001C7.20019 13.8001 6.10019 14.5001 5.10019 14.4001C4.10019 14.3001 3.30019 13.7001 3.00019 12.8001C2.90019 12.7001 2.90018 12.6001 2.70018 12.6001C2.20018 12.6001 1.80019 12.6001 1.30019 12.6001C1.00019 12.6001 0.700182 12.4001 0.700182 12.1001C0.600182 11.8001 0.800185 11.5001 1.00019 11.4001C1.10019 11.3001 1.20018 11.3001 1.40018 11.3001C1.80018 11.3001 2.30018 11.3001 2.70018 11.3001C2.90018 11.3001 2.90019 11.2001 3.00019 11.1001C3.40019 10.2001 4.00019 9.60007 5.00019 9.40007C6.10019 9.20007 7.30018 9.90007 7.70018 11.0001C7.80018 11.2001 7.80019 11.2001 8.00019 11.2001C9.00019 11.2001 10.1002 11.2001 11.1002 11.2001C11.3002 11.2001 11.4002 11.1001 11.4002 11.0001C12.0002 9.30007 14.2002 8.80007 15.5002 10.0001C15.8002 10.3001 16.0002 10.6001 16.2002 11.0001C16.2002 11.1001 16.3002 11.2001 16.4002 11.2001C16.7002 11.2001 16.9002 11.2001 17.2002 11.2001C17.3002 11.2001 17.4002 11.2001 17.4002 11.0001C17.4002 10.0001 17.4002 9.00007 17.4002 8.10007C17.4002 8.00007 17.4002 7.90007 17.3002 7.90007C17.1002 7.60007 16.9002 7.40007 16.7002 7.10007C16.6002 6.90007 16.5002 6.90007 16.3002 6.90007C14.8002 6.90007 13.4002 6.90007 11.9002 6.90007C11.3002 6.90007 11.1002 6.70007 11.1002 6.10007C11.1002 4.80007 11.1002 3.50007 11.1002 2.20007C11.1002 2.00007 11.0002 1.90007 10.8002 1.90007C7.70019 1.90007 4.50018 1.90007 1.40018 1.90007C0.900179 1.90007 0.700182 1.60007 0.700182 1.20007C0.700182 0.900073 0.900182 0.700073 1.20018 0.700073C1.30018 0.700073 1.50019 0.700073 1.60019 0.700073C2.90019 0.700073 4.50018 0.700073 6.20018 0.700073ZM13.7002 5.60007C14.2002 5.60007 14.7002 5.60007 15.2002 5.60007C15.4002 5.60007 15.4002 5.60007 15.3002 5.40007C15.0002 4.70007 14.6002 4.10007 14.3002 3.40007C14.2002 3.30007 14.1002 3.20007 14.0002 3.20007C13.4002 3.20007 12.8002 3.20007 12.2002 3.20007C12.0002 3.20007 12.0002 3.30007 12.0002 3.40007C12.0002 4.00007 12.0002 4.70007 12.0002 5.30007C12.0002 5.50007 12.1002 5.50007 12.2002 5.50007C12.7002 5.60007 13.2002 5.60007 13.7002 5.60007ZM14.7002 11.9001C14.7002 11.2001 14.2002 10.7001 13.5002 10.7001C12.8002 10.7001 12.3002 11.2001 12.3002 11.9001C12.3002 12.6001 12.8002 13.1001 13.5002 13.1001C14.1002 13.1001 14.7002 12.6001 14.7002 11.9001ZM3.80019 11.9001C3.80019 12.6001 4.30019 13.1001 5.00019 13.1001C5.70019 13.1001 6.20018 12.6001 6.20018 11.9001C6.20018 11.2001 5.70019 10.7001 5.00019 10.7001C4.30019 10.7001 3.80019 11.2001 3.80019 11.9001Z" fill="#5B5B5B"/>
                </svg>