<svg width="21" height="14" viewBox="0 0 21 14" fill="none" xmlns="http://www.w3.org/2000/svg">
<path d="M7.80004 0C9.50004 0 11.1 0 12.8 0C13.1 0 13.4 -6.10948e-06 13.6 0.399994C13.7 0.599994 13.7 0.699994 13.7 0.899994C13.7 1.39999 13.7 1.29999 14.1 1.29999C14.8 1.29999 15.5 1.29999 16.2 1.29999C16.6 1.29999 16.8 1.49999 17 1.79999C17.5 2.89999 18.1 3.9 18.6 5C18.9 5.6 19.3 6 19.7 6.5C20 6.8 20.1 7.20001 20.1 7.60001C20.1 8.80001 20.1 10 20.1 11.2C20.1 11.7 19.8 11.9 19.4 11.9C18.9 11.9 18.4 11.9 17.9 11.9C17.7 11.9 17.7 11.9 17.6 12.1C17.2 13.1 16.3 13.7 15.2 13.7C14.2 13.7 13.2 13 12.9 12.1C12.8 11.9 12.7 11.9 12.6 11.9C11.6 11.9 10.5 11.9 9.50003 11.9C9.30003 11.9 9.20003 12 9.20003 12.1C8.80003 13.1 7.70003 13.8 6.70003 13.7C5.70003 13.6 4.90004 13 4.60004 12.1C4.50004 12 4.50004 11.9 4.30004 11.9C3.80004 11.9 3.40003 11.9 2.90003 11.9C2.60003 11.9 2.30004 11.7 2.30004 11.4C2.20004 11.1 2.40004 10.8 2.60004 10.7C2.70004 10.6 2.80003 10.6 3.00003 10.6C3.40003 10.6 3.90004 10.6 4.30004 10.6C4.50004 10.6 4.50004 10.5 4.60004 10.4C5.00004 9.49999 5.60004 8.90001 6.60004 8.70001C7.70004 8.50001 8.90004 9.19999 9.30004 10.3C9.40004 10.5 9.40004 10.5 9.60004 10.5C10.6 10.5 11.7 10.5 12.7 10.5C12.9 10.5 13 10.4 13 10.3C13.6 8.59999 15.8 8.09999 17.1 9.29999C17.4 9.59999 17.6 9.89999 17.8 10.3C17.8 10.4 17.9 10.5 18 10.5C18.3 10.5 18.5 10.5 18.8 10.5C18.9 10.5 19 10.5 19 10.3C19 9.29999 19 8.29999 19 7.39999C19 7.29999 19 7.20001 18.9 7.20001C18.7 6.90001 18.5 6.69999 18.3 6.39999C18.2 6.19999 18.1 6.20001 17.9 6.20001C16.4 6.20001 15 6.20001 13.5 6.20001C12.9 6.20001 12.7 5.99999 12.7 5.39999C12.7 4.09999 12.7 2.8 12.7 1.5C12.7 1.3 12.6 1.20001 12.4 1.20001C9.30003 1.20001 6.10003 1.20001 3.00003 1.20001C2.50003 1.20001 2.30004 0.9 2.30004 0.5C2.30004 0.2 2.50004 0 2.80004 0C2.90004 0 3.10003 0 3.20003 0C4.50003 0 6.20004 0 7.80004 0ZM15.4 5C15.9 5 16.4 5 16.9 5C17.1 5 17.1 4.99999 17 4.79999C16.7 4.09999 16.3 3.49999 16 2.79999C15.9 2.69999 15.8 2.60001 15.7 2.60001C15.1 2.60001 14.5 2.60001 13.9 2.60001C13.7 2.60001 13.7 2.69999 13.7 2.79999C13.7 3.39999 13.7 4.10001 13.7 4.70001C13.7 4.90001 13.8 4.89999 13.9 4.89999C14.4 4.99999 14.9 5 15.4 5ZM16.4 11.3C16.4 10.6 15.9 10.1 15.2 10.1C14.5 10.1 14 10.6 14 11.3C14 12 14.5 12.5 15.2 12.5C15.8 12.5 16.4 11.9 16.4 11.3ZM5.50003 11.2C5.50003 11.9 6.00003 12.4 6.70003 12.4C7.40003 12.4 7.90003 11.9 7.90003 11.2C7.90003 10.5 7.40003 10 6.70003 10C6.00003 10 5.50003 10.6 5.50003 11.2Z" fill="#5B5B5B"/>
<path d="M3.49994 5C4.39994 5 5.19995 5 6.09995 5C6.49995 5 6.79994 5.30001 6.79994 5.60001C6.79994 6.00001 6.49995 6.29999 6.09995 6.29999C4.39995 6.29999 2.69993 6.29999 0.899935 6.29999C0.499935 6.29999 0.299938 6.09999 0.199938 5.79999C0.0999382 5.49999 0.299941 5.20001 0.499941 5.10001C0.599941 5.00001 0.799935 5 0.899935 5C1.79994 5 2.69994 5 3.49994 5Z" fill="#5B5B5B"/>
<path d="M4.49995 3.90009C3.59995 3.90009 2.69994 3.90009 1.89994 3.90009C1.59994 3.90009 1.39995 3.70009 1.29995 3.40009C1.19995 3.10009 1.29995 2.8001 1.59995 2.7001C1.69995 2.6001 1.89995 2.6001 1.99995 2.6001C3.69995 2.6001 5.49994 2.6001 7.19994 2.6001C7.59994 2.6001 7.89994 2.90008 7.89994 3.30008C7.89994 3.70008 7.59994 3.90009 7.19994 3.90009C6.29994 3.90009 5.39995 3.90009 4.49995 3.90009Z" fill="#5B5B5B"/>
<path d="M3.30005 8.79999C2.90005 8.79999 2.40005 8.79999 2.00005 8.79999C1.60005 8.79999 1.30005 8.50001 1.30005 8.20001C1.30005 7.80001 1.60005 7.6 2.00005 7.5C2.60005 7.5 3.20005 7.5 3.80005 7.5C4.10005 7.5 4.40004 7.5 4.70004 7.5C5.30004 7.5 5.50005 8 5.30005 8.5C5.20005 8.7 5.00004 8.79999 4.70004 8.79999C4.30004 8.79999 3.80005 8.79999 3.30005 8.79999Z" fill="#5B5B5B"/>
</svg>
