<svg width="31" height="32" viewBox="0 0 31 32" fill="none" xmlns="http://www.w3.org/2000/svg">
<path opacity="0.348" d="M15.5 31.4001C7.09995 31.4001 0.199951 24.5001 0.199951 16.1001C0.199951 7.70007 7.09995 0.800049 15.5 0.800049C23.9 0.800049 30.8 7.70007 30.8 16.1001C30.8 24.5001 23.9 31.4001 15.5 31.4001ZM15.5 3.00006C8.19995 3.00006 2.29996 8.90007 2.29996 16.2001C2.29996 23.5001 8.19995 29.4001 15.5 29.4001C22.8 29.4001 28.7 23.5001 28.7 16.2001C28.7 8.90007 22.7 3.00006 15.5 3.00006Z" fill="#2D2D2D"/>
<path d="M19.7 15.3H11.2V17.0001H19.7V15.3Z" fill="#91E29B"/>
</svg>
