<svg width="34" height="32" viewBox="0 0 34 32" fill="none" xmlns="http://www.w3.org/2000/svg">
                <path d="M19.6 21.5C16.5 21.5 13.4 21.5 10.3 21.5C9.10002 21.5 8.80003 21.2 8.50003 20.1C7.20003 14.7 5.90004 9.40002 4.60004 4.00002C4.50004 3.60002 4.40003 3.50002 4.00003 3.50002C3.10003 3.50002 2.30003 3.50002 1.40003 3.50002C0.800026 3.50002 0.300044 3.10002 0.200044 2.60002C4.40776e-05 2.10002 0.200038 1.50002 0.600038 1.20002C0.800038 1.00002 1.00002 0.900024 1.30002 0.900024C2.70002 0.900024 4.10003 0.900024 5.50003 0.900024C6.20003 0.900024 6.60002 1.30002 6.80002 2.00002C7.10002 3.40002 7.50002 4.70002 7.80002 6.10002C7.90002 6.60002 7.90003 6.60002 8.50003 6.60002C16.4 6.60002 24.3 6.60002 32.1 6.60002C32.4 6.60002 32.7 6.60002 32.9 6.70002C33.5 7.00002 33.7 7.50002 33.5 8.30002C33 10.3 32.5 12.3 32 14.3C31.5 16.3 31 18.2 30.5 20.2C30.2 21.2 29.8 21.5 28.8 21.5C25.9 21.5 22.7 21.5 19.6 21.5ZM19.7 9.20002C16.2 9.20002 12.6 9.20002 9.10004 9.20002C8.70004 9.20002 8.70002 9.30002 8.80002 9.60002C9.50002 12.5 10.2 15.4 10.9 18.3C11 18.7 11.2 18.8 11.6 18.8C17 18.8 22.5 18.8 27.9 18.8C28.5 18.8 28.5 18.8 28.6 18.3C29.3 15.4 30 12.5 30.7 9.60002C30.8 9.10002 30.8 9.10002 30.3 9.10002C26.7 9.20002 23.2 9.20002 19.7 9.20002Z" fill="#FCFCFC"/>
                <path d="M26.7 31.6001C24.4 31.6001 22.5 29.7001 22.5 27.4001C22.5 25.1001 24.4 23.2001 26.8 23.2001C29.1 23.2001 31 25.1001 31 27.4001C30.9 29.8001 29 31.6001 26.7 31.6001ZM25.1 27.4001C25.1 28.3001 25.8 29.0001 26.7 29.0001C27.6 29.0001 28.3 28.3001 28.3 27.4001C28.3 26.5001 27.6 25.8001 26.7 25.7001C25.9 25.8001 25.1 26.5001 25.1 27.4001Z" fill="#FCFCFC"/>
                <path d="M11.5001 31.6001C9.10006 31.6001 7.30005 29.7001 7.30005 27.4001C7.30005 25.1001 9.20006 23.2001 11.5001 23.2001C13.8001 23.2001 15.7001 25.1001 15.7001 27.4001C15.8001 29.8001 13.9001 31.6001 11.5001 31.6001ZM11.5001 29.0001C12.4001 29.0001 13.1001 28.3001 13.1001 27.4001C13.1001 26.5001 12.4001 25.8001 11.5001 25.8001C10.6001 25.8001 9.90005 26.5001 9.90005 27.4001C9.90005 28.3001 10.6001 29.0001 11.5001 29.0001Z" fill="#FCFCFC"/>
                </svg>