<svg width="14" height="14" viewBox="0 0 14 14" fill="none" xmlns="http://www.w3.org/2000/svg">
<path d="M8.29994 7.09996L13.2 1.99995C13.6 1.59995 13.6 0.999951 13.2 0.499951C12.8 0.0999512 12.1999 0.0999512 11.7999 0.499951L7.09996 5.29995L2.39995 0.499951C1.99995 0.0999512 1.39995 0.0999512 0.999951 0.499951C0.599951 0.899951 0.599951 1.49995 0.999951 1.99995L5.89995 6.99995V7.09996L0.999951 12.1C0.599951 12.5 0.599951 13.1 0.999951 13.6C1.39995 14 1.99995 14 2.39995 13.6L7.09996 8.79995L11.7999 13.6C12.1999 14 12.8 14 13.2 13.6C13.6 13.2 13.6 12.6 13.2 12.1L8.29994 7.09996Z" fill="#5B5B5B"/>
</svg>
