<svg width="21" height="15" viewBox="0 0 21 15" fill="none" xmlns="http://www.w3.org/2000/svg">
<path d="M8.20018 0.700073C9.90018 0.700073 11.5002 0.700073 13.2002 0.700073C13.5002 0.700073 13.8002 0.700082 14.0002 1.10008C14.1002 1.30008 14.1002 1.40008 14.1002 1.60008C14.1002 2.10008 14.1002 2.00008 14.5002 2.00008C15.2002 2.00008 15.9002 2.00008 16.6002 2.00008C17.0002 2.00008 17.2002 2.20008 17.4002 2.50008C17.9002 3.60008 18.5002 4.60007 19.0002 5.70007C19.3002 6.30007 19.7002 6.70007 20.1002 7.20007C20.4002 7.50007 20.5002 7.90008 20.5002 8.30008C20.5002 9.50008 20.5002 10.7001 20.5002 11.9001C20.5002 12.4001 20.2002 12.6001 19.8002 12.6001C19.3002 12.6001 18.8002 12.6001 18.3002 12.6001C18.1002 12.6001 18.1002 12.6001 18.0002 12.8001C17.6002 13.8001 16.7002 14.4001 15.6002 14.4001C14.6002 14.4001 13.6002 13.7001 13.3002 12.8001C13.2002 12.6001 13.1002 12.6001 13.0002 12.6001C12.0002 12.6001 10.9002 12.6001 9.90018 12.6001C9.70018 12.6001 9.60019 12.7001 9.60019 12.8001C9.20019 13.8001 8.10019 14.5001 7.10019 14.4001C6.10019 14.3001 5.30019 13.7001 5.00019 12.8001C4.90019 12.7001 4.90018 12.6001 4.70018 12.6001C4.20018 12.6001 3.80019 12.6001 3.30019 12.6001C3.00019 12.6001 2.70018 12.4001 2.70018 12.1001C2.60018 11.8001 2.80019 11.5001 3.00019 11.4001C3.10019 11.3001 3.20018 11.3001 3.40018 11.3001C3.80018 11.3001 4.30018 11.3001 4.70018 11.3001C4.90018 11.3001 4.90019 11.2001 5.00019 11.1001C5.40019 10.2001 6.00019 9.60007 7.00019 9.40007C8.10019 9.20007 9.30018 9.90008 9.70018 11.0001C9.80018 11.2001 9.80019 11.2001 10.0002 11.2001C11.0002 11.2001 12.1002 11.2001 13.1002 11.2001C13.3002 11.2001 13.4002 11.1001 13.4002 11.0001C14.0002 9.30008 16.2002 8.80008 17.5002 10.0001C17.8002 10.3001 18.0002 10.6001 18.2002 11.0001C18.2002 11.1001 18.3002 11.2001 18.4002 11.2001C18.7002 11.2001 18.9002 11.2001 19.2002 11.2001C19.3002 11.2001 19.4002 11.2001 19.4002 11.0001C19.4002 10.0001 19.4002 9.00008 19.4002 8.10008C19.4002 8.00008 19.4002 7.90007 19.3002 7.90007C19.1002 7.60007 18.9002 7.40008 18.7002 7.10008C18.6002 6.90008 18.5002 6.90007 18.3002 6.90007C16.8002 6.90007 15.4002 6.90007 13.9002 6.90007C13.3002 6.90007 13.1002 6.70008 13.1002 6.10008C13.1002 4.80008 13.1002 3.50007 13.1002 2.20007C13.1002 2.00007 13.0002 1.90007 12.8002 1.90007C9.70019 1.90007 6.50018 1.90007 3.40018 1.90007C2.90018 1.90007 2.70018 1.60007 2.70018 1.20007C2.70018 0.900073 2.90018 0.700073 3.20018 0.700073C3.30018 0.700073 3.50019 0.700073 3.60019 0.700073C4.90019 0.700073 6.50018 0.700073 8.20018 0.700073ZM15.7002 5.70007C16.2002 5.70007 16.7002 5.70007 17.2002 5.70007C17.4002 5.70007 17.4002 5.70008 17.3002 5.50008C17.0002 4.80008 16.6002 4.20008 16.3002 3.50008C16.2002 3.40008 16.1002 3.30008 16.0002 3.30008C15.4002 3.30008 14.8002 3.30008 14.2002 3.30008C14.0002 3.30008 14.0002 3.40008 14.0002 3.50008C14.0002 4.10008 14.0002 4.80007 14.0002 5.40007C14.0002 5.60007 14.1002 5.60008 14.2002 5.60008C14.7002 5.70008 15.2002 5.70007 15.7002 5.70007ZM16.7002 11.9001C16.7002 11.2001 16.2002 10.7001 15.5002 10.7001C14.8002 10.7001 14.3002 11.2001 14.3002 11.9001C14.3002 12.6001 14.8002 13.1001 15.5002 13.1001C16.1002 13.1001 16.7002 12.6001 16.7002 11.9001ZM5.80019 11.9001C5.80019 12.6001 6.30019 13.1001 7.00019 13.1001C7.70019 13.1001 8.20018 12.6001 8.20018 11.9001C8.20018 11.2001 7.70019 10.7001 7.00019 10.7001C6.30019 10.7001 5.80019 11.2001 5.80019 11.9001Z" fill="#5B5B5B"/>
<path d="M3.90007 5.70007C4.80007 5.70007 5.60008 5.70007 6.50008 5.70007C6.90008 5.70007 7.20008 6.00008 7.20008 6.30008C7.20008 6.70008 6.90008 7.00008 6.50008 7.00008C4.80008 7.00008 3.10008 7.00008 1.30008 7.00008C0.900083 7.00008 0.700086 6.80008 0.600086 6.50008C0.500086 6.20008 0.700074 5.90008 0.900074 5.80008C1.00007 5.70008 1.20008 5.70007 1.30008 5.70007C2.20008 5.70007 3.00007 5.70007 3.90007 5.70007Z" fill="#5B5B5B"/>
<path d="M4.90009 4.50008C4.00009 4.50008 3.1001 4.50008 2.3001 4.50008C2.0001 4.50008 1.8001 4.30008 1.7001 4.00008C1.6001 3.70008 1.7001 3.40008 2.0001 3.30008C2.1001 3.20008 2.30009 3.20007 2.40009 3.20007C4.10009 3.20007 5.90011 3.20007 7.60011 3.20007C8.00011 3.20007 8.3001 3.50007 8.3001 3.90007C8.3001 4.30007 8.00011 4.50008 7.60011 4.50008C6.60011 4.50008 5.70009 4.50008 4.90009 4.50008Z" fill="#5B5B5B"/>
<path d="M3.7002 9.40009C3.3002 9.40009 2.80019 9.40009 2.40019 9.40009C2.00019 9.40009 1.7002 9.10009 1.7002 8.80009C1.7002 8.40009 2.00019 8.2001 2.40019 8.1001C3.00019 8.1001 3.6002 8.1001 4.2002 8.1001C4.5002 8.1001 4.8002 8.1001 5.1002 8.1001C5.7002 8.1001 5.9002 8.6001 5.7002 9.1001C5.6002 9.3001 5.4002 9.40009 5.1002 9.40009C4.6002 9.40009 4.1002 9.40009 3.7002 9.40009Z" fill="#5B5B5B"/>
</svg>
