<svg width="31" height="32" viewBox="0 0 31 32" fill="none" xmlns="http://www.w3.org/2000/svg">
<g opacity="0.348">
<g opacity="0.348">
<path opacity="0.348" d="M15.5 31.3998C7.09995 31.3998 0.199951 24.4998 0.199951 16.0998C0.199951 7.69979 7.09995 0.799805 15.5 0.799805C23.9 0.799805 30.8 7.69979 30.8 16.0998C30.8 24.4998 23.9 31.3998 15.5 31.3998ZM15.5 2.99982C8.19995 2.99982 2.29996 8.89983 2.29996 16.1998C2.29996 23.4998 8.19995 29.3998 15.5 29.3998C22.8 29.3998 28.7 23.4998 28.7 16.1998C28.6 8.89983 22.7 2.99982 15.5 2.99982Z" fill="#2D2D2D"/>
</g>
</g>
<path d="M19.7 15.2998H11.2V16.9998H19.7V15.2998Z" fill="#91E29B"/>
</svg>

