<svg width="64" height="24" viewBox="0 0 64 24" fill="none" xmlns="http://www.w3.org/2000/svg">
<path fill-rule="evenodd" clip-rule="evenodd" d="M39.6823 13.1517C39.2573 12.6892 38.7472 12.2687 38.1946 11.9744C37.6421 11.638 37.0045 11.3857 36.3244 11.1335C35.6443 10.8812 34.9217 10.6709 34.1991 10.5027C33.4765 10.3346 32.7114 10.1664 31.9038 9.99817C31.0537 9.82998 30.3736 9.61975 29.7785 9.45156C29.226 9.28337 28.7584 9.07312 28.3758 8.90493C28.0358 8.73674 27.8233 8.52651 27.6532 8.27422C27.5257 8.02193 27.4407 7.7276 27.4407 7.39122C27.4407 7.01279 27.5257 6.67642 27.6958 6.42413C27.8658 6.1298 28.1208 5.87752 28.4608 5.66728C28.8009 5.45704 29.226 5.28884 29.736 5.12065C30.2461 4.99451 30.8412 4.91042 31.4787 4.91042C34.1991 4.91042 35.6443 5.91957 35.8143 7.9799L35.8568 8.23217H40.4899V7.93784C40.4474 6.84461 40.1924 5.87752 39.7248 4.99452C39.2573 4.15357 38.6622 3.3967 37.8546 2.80804C37.0895 2.21937 36.1119 1.75685 35.0067 1.46252C33.9016 1.16819 32.7114 1 31.3512 1C30.1186 1 29.0134 1.12614 27.9933 1.42048C26.9732 1.71481 26.0805 2.13528 25.3579 2.63985C24.5928 3.14442 23.9978 3.81718 23.5727 4.53199C23.1476 5.2468 22.8926 6.08775 22.8076 6.97074C22.7651 7.22303 22.7651 7.51737 22.8076 7.76966C22.8076 8.02194 22.8501 8.27422 22.8926 8.48446C23.0201 9.45155 23.3177 10.2505 23.7852 10.8391C24.2528 11.4698 24.8904 11.9744 25.6555 12.3949C26.4206 12.8154 27.3132 13.1938 28.2908 13.4461C29.2685 13.7404 30.3736 13.9927 31.5638 14.287C32.3714 14.4973 33.094 14.6655 33.689 14.8757C34.2841 15.0439 34.7942 15.2541 35.1767 15.5064C35.5593 15.7166 35.8143 15.9689 36.0268 16.2633C36.1969 16.5155 36.2819 16.8519 36.2819 17.2304C36.2819 17.6508 36.1969 18.0713 35.9843 18.4077C35.7718 18.7441 35.4743 19.0384 35.1342 19.2907C34.7517 19.543 34.2841 19.7112 33.7315 19.8373C33.179 19.9634 32.5414 20.0475 31.8188 20.0475C31.0962 20.0475 30.4161 19.9634 29.821 19.7952C29.226 19.6271 28.6734 19.3748 28.2058 19.0804C27.7383 18.7441 27.3982 18.3656 27.1007 17.9031C26.8031 17.4406 26.6331 16.8519 26.5906 16.1792L26.5481 15.9269H22V16.2212C22.1275 18.7441 23.0626 20.6783 24.7629 22.0238C26.4206 23.3272 28.8434 24 31.9463 24C33.2215 24 34.4541 23.8318 35.5593 23.5375C36.6644 23.2432 37.5996 22.7806 38.4072 22.192C39.2148 21.6033 39.8524 20.8464 40.3199 20.0055C40.7875 19.1645 41 18.1554 41 17.1042C41 16.2633 40.8725 15.5064 40.66 14.8757C40.4474 14.1609 40.1074 13.6143 39.6823 13.1517Z" fill="white"/>
<path fill-rule="evenodd" clip-rule="evenodd" d="M12.7783 9.05495C12.6509 9.45055 12.4387 9.80219 12.1415 10.0659C11.8443 10.3297 11.4623 10.5494 10.9953 10.7253C10.5283 10.9011 9.89151 10.989 9.16981 10.989C8.91509 11.033 8.66038 11.033 8.36321 11.033H4.83962V4.26374H7.4717C8.2783 4.26374 9.04245 4.30769 9.7217 4.35164C10.4009 4.3956 10.9104 4.48352 11.2925 4.61538C11.5047 4.7033 11.7594 4.83516 11.9717 5.01099C12.184 5.18681 12.3538 5.40659 12.4811 5.67033C12.6085 5.93406 12.7359 6.24175 12.8208 6.54945C12.9057 6.85714 12.9481 7.2088 12.9481 7.56044C12.9906 8.13187 12.9481 8.65934 12.7783 9.05495ZM17.7028 5.18681C17.533 4.48351 17.2358 3.82418 16.8113 3.16484C16.4292 2.5055 15.9623 2.02198 15.4528 1.58242C14.9434 1.18682 14.3491 0.879118 13.6698 0.615382C13.033 0.395602 12.2689 0.219782 11.5047 0.131869C10.7406 0.0439574 9.84906 0 8.95755 0H3.09906H2.29245H1.48585C0.679245 0 0 0.703297 0 1.53846V2.32966V3.20879V24H4.88208V15.2528H8.83019C10.2736 15.2528 11.5896 15.0769 12.7359 14.7692C13.8821 14.4176 14.8585 13.9341 15.6226 13.2747C16.3868 12.6154 17.0236 11.7802 17.4057 10.8132C17.7877 9.84616 18 8.70329 18 7.42857C18 6.63736 17.9151 5.8901 17.7028 5.18681Z" fill="white"/>
<path fill-rule="evenodd" clip-rule="evenodd" d="M58.0215 19.1557C57.3775 19.619 56.3471 19.8718 54.9302 19.8718H50.8945V14.1429H54.6726C55.4884 14.1429 56.1753 14.185 56.7764 14.3114C57.3345 14.4377 57.7639 14.6062 58.0644 14.8169C58.3649 15.0275 58.5796 15.3223 58.7513 15.6593C58.8801 16.0385 58.966 16.4597 58.966 16.9652C58.966 17.9762 58.6655 18.6923 58.0215 19.1557ZM50.9374 5.00183H54.5868C55.2737 5.00183 55.8748 5.04396 56.39 5.17033C56.8623 5.29671 57.2487 5.42307 57.5063 5.63369C57.7639 5.84432 57.9785 6.05495 58.1073 6.39194C58.2361 6.68682 58.2791 7.06594 58.2791 7.48718C58.2791 8.45605 58.0215 9.13004 57.4633 9.50916C56.9052 9.88828 56.0036 10.0989 54.8014 10.0989H50.9374V5.00183ZM63.7317 15.196C63.5599 14.6062 63.2594 14.0586 62.9159 13.5952C62.5295 13.1319 62.0573 12.7106 61.542 12.3736C61.1556 12.1209 60.7263 11.9103 60.254 11.7839C61.1127 11.3205 61.7567 10.7308 62.229 10.0147C62.7871 9.17217 63.0877 8.11905 63.0877 6.98168C63.0877 6.05494 62.9159 5.21246 62.5295 4.49634C62.1431 3.78022 61.6279 3.10623 60.898 2.60073C60.2111 2.09524 59.3524 1.67399 58.322 1.42125C57.3345 1.1685 56.2183 1 54.9732 1H49.1342H47.932H47.5027C46.6869 1 46 1.67399 46 2.47436V2.81136V4.07509V24H55.1878C58.0644 24 60.297 23.4103 61.7567 22.2308C63.2594 21.0513 63.9893 19.3242 63.9893 17.1337C64.0322 16.3755 63.9463 15.7857 63.7317 15.196Z" fill="white"/>
</svg>
